<?xml version="1.0" encoding="utf-8"?>
<!-- Generator: Adobe Illustrator 24.1.0, SVG Export Plug-In . SVG Version: 6.00 Build 0)  -->
<svg version="1.1" xmlns="http://www.w3.org/2000/svg" xmlns:xlink="http://www.w3.org/1999/xlink" x="0px" y="0px"
	 viewBox="0 0 144 109.7" style="enable-background:new 0 0 144 109.7;" xml:space="preserve">
<style type="text/css">
	.st0{display:none;}
	.st1{display:inline;fill:#FFFFFF;stroke:#003955;stroke-miterlimit:10;}
	.st2{fill:#003955;}
	.st3{fill:#F6DD34;}
	.st4{fill:#71301D;}
	.st5{fill:#542518;}
	.st6{fill:#FFCA0D;}
	.st7{fill:#FCC7A5;}
	.st8{fill:#EBAD86;}
	.st9{fill:#CE7755;}
	.st10{fill:#414042;}
	.st11{fill:#B57035;}
	.st12{fill:#F7941D;}
	.st13{fill:#001539;}
	.st14{fill:#E3E0E2;}
	.st15{fill:#D1CFD1;}
	.st16{fill:#FCF9FC;}
	.st17{fill:#F9B09B;}
	.st18{fill:#FCD3C5;}
	.st19{fill:#FDD9C2;}
	.st20{fill:#712914;}
	.st21{fill:#4C1F1C;}
	.st22{fill:#321614;}
	.st23{fill:#ED756D;}
	.st24{fill:#F58F88;}
	.st25{fill:#F8B1AE;}
	.st26{fill:#FFFFFF;}
	.st27{fill:#DADBDC;}
	.st28{fill:#8A6F68;}
	.st29{fill:#5E281A;}
	.st30{fill:#8A4A37;}
	.st31{fill:#D5956A;}
	.st32{fill:#603913;}
	.st33{fill:#3C2415;}
	.st34{fill:#DCEEF0;}
	.st35{fill:#BACED0;}
	.st36{fill:#D1D3D4;}
	.st37{fill:#939598;}
	.st38{fill:#B2DCEF;}
	.st39{fill:#91C5DB;}
	.st40{fill:#647174;}
	.st41{fill:#6B787B;}
	.st42{fill:#7C8B8E;}
	.st43{fill:#98A3A9;}
	.st44{fill:#6F797E;}
	.st45{fill:#B48C7A;}
	.st46{fill:none;stroke:#000000;stroke-width:0.25;stroke-miterlimit:10;}
</style>
<g id="Layer_2" class="st0">
	<rect x="-90.55" y="-18.69" class="st1" width="321.5" height="208.9"/>
</g>
<g id="Capa_1">
	<g>
		<g>
			<path class="st2" d="M-67.84,82.8c0.34-1.02,0.7-2.03,1.08-3.04h-16.31c-0.34,1.01-0.66,2.02-0.97,3.04H-67.84z"/>
			<path class="st2" d="M-88.41,106.61c-0.09,1.33-0.16,2.66-0.2,3.99h15.68c0.05-1.34,0.13-2.67,0.23-3.99H-88.41z"/>
			<path class="st2" d="M-79.92,71.45c-0.27,0.64-0.54,1.29-0.8,1.93h16.6c0.29-0.65,0.59-1.29,0.9-1.93H-79.92z"/>
			<path class="st2" d="M-61.36,67.76c21.95-41.54,72.58-70.7,131.4-70.7s109.45,29.15,131.4,70.7h16.91
				c-22.82-48.77-80.69-83.5-148.31-83.5S-55.45,18.98-78.27,67.76H-61.36z"/>
			<path class="st2" d="M228.49,106.61h-15.71c0.1,1.33,0.18,2.66,0.23,3.99h15.68C228.66,109.27,228.58,107.94,228.49,106.61z"/>
			<path class="st2" d="M210.47,91.71c0.25,1.06,0.48,2.13,0.7,3.2h15.87c-0.19-1.07-0.4-2.14-0.63-3.2H210.47z"/>
			<path class="st2" d="M-87.61,128.87c0.75,5.28,1.88,10.46,3.38,15.53h16.18c-1.68-5.05-2.94-10.24-3.77-15.53H-87.61z"/>
			<path class="st2" d="M-71.09,94.91c0.22-1.07,0.45-2.14,0.7-3.2h-15.94c-0.23,1.06-0.44,2.13-0.63,3.2H-71.09z"/>
			<path class="st2" d="M211.9,128.87c-0.83,5.29-2.09,10.48-3.77,15.53h16.18c1.51-5.07,2.63-10.25,3.38-15.53H211.9z"/>
			<path class="st2" d="M203.3,71.45c0.31,0.64,0.61,1.29,0.9,1.93h16.6c-0.26-0.65-0.53-1.29-0.8-1.93H203.3z"/>
			<path class="st2" d="M206.84,79.77c0.38,1.01,0.74,2.02,1.08,3.04h16.2c-0.31-1.02-0.63-2.03-0.97-3.04H206.84z"/>
		</g>
	</g>
	<path class="st2" d="M-56.07,150.05l-0.78,3.96c-0.09,0.43-0.42,0.67-0.94,0.68c-0.05,0-0.05,0-0.1,0
		c-1.34-0.06-6.8-0.34-10.05-0.3c-2.3,0.03-4.25,0.37-4.21,2.56c0.02,0.82,0.5,1.2,2.48,2.23l5.61,2.9
		c3.62,1.87,5.19,3.92,5.24,6.18c0.14,7.15-6.64,10.09-14.67,10.19c-3.78,0.05-6.7-0.26-9.05-0.74c-0.43-0.07-0.77-0.3-0.78-0.65
		c0-0.04,0-0.08,0-0.12l0.74-3.84c0.09-0.47,0.46-0.75,0.99-0.75c0.05,0,0.1,0,0.14,0c1.92,0.13,7.13,0.37,9,0.35
		c2.68-0.03,4.91-0.77,4.86-3.27c-0.02-0.86-0.61-1.71-2.54-2.7l-5.94-3.09c-3.04-1.56-4.38-3.81-4.42-6
		c-0.13-6.84,6.66-8.92,13.89-9.01c3.49-0.05,8.23,0.36,9.96,0.73c0.38,0.07,0.58,0.27,0.58,0.54
		C-56.07,149.93-56.07,150.01-56.07,150.05z"/>
	<path class="st2" d="M-31.5,164.85l-0.56,3.05c-1.34,7.29-6.31,10.08-13.58,10.18c-1.34,0.02-2.78-0.08-4.26-0.22l-1.35,6.78
		c-0.09,0.43-0.56,0.79-1.08,0.8l-5.79,0.08c-0.48,0.01-0.87-0.26-0.87-0.65c0-0.04,0-0.08,0-0.12l5.39-27.46
		c0.13-0.63,0.36-0.9,1.7-1.16c2.86-0.58,6.67-1.1,10.36-1.15c6.41-0.08,10.15,3.03,10.24,7.76
		C-31.29,163.4-31.37,164.1-31.5,164.85z M-42.54,160.22c-1.58,0.02-3.01,0.12-3.96,0.25l-2.39,12.22c1.34,0.14,2.54,0.2,3.59,0.19
		c3.01-0.04,4.76-1,5.5-4.88l0.56-3.05c0.13-0.78,0.21-1.45,0.2-2.03C-39.08,161.12-39.96,160.19-42.54,160.22z"/>
	<path class="st2" d="M-18.54,155.77l-4.09,20.88c-0.09,0.43-0.61,0.79-1.13,0.8l-5.83,0.08c-0.48,0.01-0.77-0.26-0.78-0.61
		c0-0.08,0-0.12,0-0.16l4.09-20.88c0.09-0.43,0.56-0.79,1.08-0.79l5.83-0.08c0.48-0.01,0.82,0.26,0.83,0.65
		C-18.54,155.69-18.54,155.73-18.54,155.77z M-16.88,148.01l-0.69,3.64c-0.09,0.43-0.61,0.79-1.13,0.8l-6.22,0.08
		c-0.48,0.01-0.77-0.26-0.78-0.61c0-0.08,0-0.12,0-0.16l0.69-3.64c0.09-0.43,0.61-0.79,1.13-0.8l6.22-0.08
		c0.48-0.01,0.77,0.26,0.78,0.62C-16.88,147.93-16.88,147.97-16.88,148.01z"/>
	<path class="st2" d="M7.76,162.92l-2.61,13.32c-0.09,0.43-0.56,0.83-1.08,0.83l-5.88,0.08c-0.48,0.01-0.82-0.26-0.83-0.65
		c0-0.04,0.05-0.12,0.04-0.16l2.69-13.79c0.09-0.47,0.13-0.86,0.12-1.25c-0.02-1.01-0.56-1.67-2.38-1.65l-2.39,0.03
		c-2.49,0.03-2.99,1.06-3.39,2.97l-2.69,13.79c-0.09,0.43-0.61,0.83-1.13,0.83l-5.88,0.08c-0.48,0.01-0.77-0.3-0.78-0.65
		c0-0.04,0.05-0.12,0.05-0.16l2.78-14.26c1.04-5.37,5.16-7.73,12.04-7.82l2.39-0.03c5.93-0.08,9.04,2.26,9.12,6.33
		C7.97,161.44,7.89,162.18,7.76,162.92z"/>
	<path class="st3" d="M42.25,156.34l-3.6,18.53c-0.13,0.59-0.37,0.83-1.51,1.08c-3.1,0.66-6.72,1.1-9.78,1.14
		c-6.5,0.09-9.62-3.04-9.71-7.45c-0.01-0.7,0.07-1.45,0.2-2.23l0.56-3.01c1.25-6.78,5.69-9.88,13.39-9.98
		c3.06-0.04,6.56,0.31,9.39,0.89c0.86,0.18,1.11,0.38,1.11,0.73C42.3,156.1,42.3,156.22,42.25,156.34z M30.96,158.63
		c-4.11,0.05-5.6,2.26-6.25,5.67l-0.56,3.01c-0.17,0.86-0.26,1.61-0.24,2.27c0.04,2.15,1.16,3.31,4.27,3.26
		c1.72-0.02,3.68-0.17,4.63-0.33l2.65-13.67C34.6,158.7,32.69,158.61,30.96,158.63z"/>
	<path class="st3" d="M67.65,162.3l-2.56,13.16c-0.09,0.43-0.56,0.83-1.08,0.83l-4.49,0.06c-0.48,0.01-0.72-0.3-0.73-0.65
		c0-0.04,0-0.12,0-0.16l2.65-13.55c0.09-0.51,0.17-0.98,0.16-1.45c-0.02-1.25-0.67-2.22-3.01-2.19l-2.68,0.03
		c-2.77,0.04-3.42,1.02-3.94,3.72l-2.65,13.55c-0.09,0.43-0.56,0.83-1.08,0.83l-4.49,0.06c-0.48,0.01-0.72-0.3-0.73-0.65
		c0-0.04,0-0.12,0-0.16l2.65-13.55c1.17-5.95,3.86-8.02,11.13-8.12l2.49-0.03c5.45-0.07,8.47,2.74,8.55,6.53
		C67.82,161.12,67.78,161.71,67.65,162.3z"/>
	<path class="st3" d="M96.34,146.92l-5.35,27.26c-0.13,0.59-0.37,0.83-1.51,1.08c-3.1,0.67-6.72,1.1-9.78,1.14
		c-6.65,0.09-9.63-3.23-9.71-7.53c-0.01-0.7,0.07-1.41,0.2-2.15l0.56-3.02c1.3-7.09,5.69-9.88,13.39-9.98
		c1.15-0.02,2.77,0.04,4.5,0.21l1.39-6.93c0.09-0.43,0.56-0.79,1.08-0.79l4.4-0.06c0.48-0.01,0.82,0.26,0.83,0.65
		C96.34,146.84,96.34,146.88,96.34,146.92z M83.31,157.95c-4.11,0.05-5.56,1.87-6.25,5.67l-0.56,3.02
		c-0.17,0.94-0.25,1.72-0.24,2.43c0.04,2.15,1.16,3.15,4.27,3.11c1.72-0.02,3.68-0.17,4.63-0.33l2.65-13.67
		C86.51,158.02,84.45,157.93,83.31,157.95z"/>
	<path class="st2" d="M124.4,170.89l-0.74,3.64c-0.09,0.51-0.37,0.71-1.08,0.83c-1.62,0.3-5.39,0.58-7.93,0.61
		c-5.26,0.07-10.12-1.39-10.22-6.31c-0.01-0.59,0.07-1.25,0.2-1.96l3.95-20.25c0.09-0.43,0.61-0.79,1.13-0.8l6.26-0.08
		c0.48-0.01,0.77,0.26,0.78,0.61c0,0.08,0,0.12,0,0.16l-3.96,20.25c-0.09,0.39-0.13,0.74-0.12,1.02c0.02,1.25,0.85,1.63,2.66,1.61
		l8.22-0.11c0.48-0.01,0.82,0.26,0.83,0.65C124.4,170.81,124.4,170.85,124.4,170.89z"/>
	<path class="st2" d="M150.63,162.73L150.2,165c-0.13,0.59-0.56,0.95-1.18,0.95l-15.35,0.2c-0.08,0.59-0.17,1.14-0.16,1.6
		c0.04,2.03,1.25,2.72,4.31,2.68c3.01-0.04,7.31-0.29,9.27-0.47c0.05,0,0.1,0,0.14,0c0.43-0.01,0.77,0.15,0.77,0.5
		c0,0.04,0,0.08,0,0.12l-0.61,2.98c-0.13,0.63-0.32,0.9-1.17,1.07c-3.19,0.67-5.86,1.01-10.02,1.07c-5.16,0.07-10.09-2.29-10.2-7.72
		c-0.01-0.66,0.07-1.41,0.2-2.19l0.52-2.74c1.3-6.81,6.25-10.36,14.1-10.46c6.45-0.08,9.92,3.46,10.01,8.03
		C150.84,161.28,150.76,162.03,150.63,162.73z M139.82,157.68c-3.25,0.04-4.75,1.86-5.41,4.56l8.99-0.12
		c0.13-0.63,0.22-1.21,0.21-1.72C143.57,158.6,142.5,157.64,139.82,157.68z"/>
	<path class="st2" d="M178.36,154.24l-3.7,18.8c-0.13,0.63-0.36,0.9-1.7,1.16c-2.86,0.58-6.58,1.1-10.26,1.15
		c-6.41,0.08-10.15-3.11-10.25-7.84c-0.01-0.66,0.02-1.33,0.15-2.03l0.56-3.05c1.38-7.48,6.21-10.08,13.96-10.18
		c3.68-0.05,7.32,0.37,9.97,0.89c0.81,0.14,1.3,0.26,1.31,0.84C178.41,154.05,178.36,154.12,178.36,154.24z M166.14,157.49
		c-3.68,0.05-4.7,1.86-5.26,4.84l-0.56,3.05c-0.13,0.74-0.21,1.37-0.2,1.96c0.04,1.84,0.96,2.84,3.55,2.81
		c1.58-0.02,3.01-0.16,3.96-0.29l2.39-12.22C169.15,157.53,167.71,157.47,166.14,157.49z"/>
	<path class="st2" d="M196.39,152.6l-0.74,3.8c-0.09,0.43-0.51,0.75-1.42,0.76c-1.39,0.02-3.3,0.12-4.35,0.29l-3.22,16.41
		c-0.09,0.43-0.61,0.83-1.13,0.83l-5.79,0.08c-0.48,0.01-0.82-0.3-0.83-0.69c0-0.04,0-0.08,0-0.12l3.83-19.55
		c0.08-0.55,0.51-0.94,1.7-1.27c3.24-0.86,6.24-1.22,10.78-1.27c0.53-0.01,1.15,0.14,1.16,0.61
		C196.39,152.52,196.39,152.56,196.39,152.6z"/>
	<path class="st2" d="M220.02,160.14l-2.61,13.32c-0.09,0.43-0.56,0.83-1.08,0.83l-5.88,0.08c-0.48,0.01-0.82-0.26-0.83-0.65
		c0-0.04,0.05-0.12,0.04-0.16l2.69-13.79c0.09-0.47,0.13-0.86,0.12-1.25c-0.02-1.01-0.56-1.67-2.38-1.65l-2.39,0.03
		c-2.49,0.03-2.99,1.06-3.39,2.97l-2.69,13.79c-0.09,0.43-0.61,0.83-1.13,0.83l-5.88,0.08c-0.48,0.01-0.77-0.3-0.78-0.65
		c0-0.04,0.05-0.12,0.04-0.16l2.78-14.26c1.04-5.37,5.16-7.73,12.04-7.82l2.39-0.03c5.93-0.08,9.04,2.26,9.12,6.33
		C220.23,158.65,220.15,159.4,220.02,160.14z"/>
	<g>
		<g>
			<path class="st4" d="M171.38,84.73c0,0,0.48,8.06-3.05,9.68c1.14,1.53,0,3.77-1.46,3.72c1.65,1.32,0.4,3.4-0.74,3.91
				c-1.17,0.38-2.74-0.29-2.74-0.29s-2.2-2.74,0.61-4.12c-0.81-1.45-1.07-2.89,0.21-3.81c-1.01-1.97-2.73-4.41-2.73-4.41
				L171.38,84.73z"/>
			<path class="st5" d="M168.34,94.33c0,0-1.55-0.81-4.12-0.51C165.01,94.08,168.34,94.33,168.34,94.33z"/>
			<path class="st4" d="M166.22,103.1c1.68,0.98,2.29,3.36-0.06,5.92c-2.35,2.56-1.19,4.3-1.19,4.3s-5.38-4.51-1.48-10.45
				C164.9,102.92,166.22,103.1,166.22,103.1z"/>
			<path class="st6" d="M166.52,101.79c0.61,0.25,0.54,1.35,0.14,1.63c-0.5,0.27-2.84,0.21-3.37-0.2c-1.16-0.88-0.12-1.79-0.12-1.79
				S165.23,101.84,166.52,101.79z"/>
			<path class="st5" d="M166.87,98.12c-1.84-0.85-2.58-0.71-2.86-0.49C164.61,97.88,166.87,98.12,166.87,98.12z"/>
		</g>
		<g>
			<path class="st4" d="M146.77,82.19c0,0-0.3,8.07-3.98,9.45c0.98,1.59-0.37,3.76-1.81,3.61c1.52,1.42,0.07,3.41-1.12,3.85
				c-1.2,0.3-2.7-0.46-2.7-0.46s-1.92-2.88,1.01-4.06c-0.67-1.5-0.79-2.95,0.57-3.79c-0.82-2.03-2.29-4.57-2.29-4.57L146.77,82.19z"
				/>
			<path class="st5" d="M142.81,91.56c0,0-1.47-0.91-4.06-0.78C139.51,91.1,142.81,91.56,142.81,91.56z"/>
			<path class="st4" d="M139.84,100.17c1.58,1.09,1.95,3.5-0.64,5.9c-2.59,2.4-1.6,4.2-1.6,4.2s-4.92-4.85-0.46-10.51
				C138.55,99.9,139.84,100.17,139.84,100.17z"/>
			<path class="st6" d="M140.28,98.88c0.58,0.29,0.41,1.38-0.02,1.63c-0.52,0.23-2.85,0.02-3.34-0.41
				c-1.07-0.95,0.06-1.79,0.06-1.79S138.98,98.85,140.28,98.88z"/>
			<path class="st5" d="M140.97,95.25c-1.75-0.97-2.51-0.88-2.81-0.68C138.75,94.85,140.97,95.25,140.97,95.25z"/>
		</g>
		<g>
			<path class="st7" d="M158.24,103.23c0,0,3.12,3.92,11.02,4.87c3.39-0.26,4.23,0.63,3.67,0.67c0.92,0.17,0.99,0.85-0.01,0.54
				c1.13,0.34,0.88,1.03-0.14,0.75c0.57,0.26,0.63,0.96-0.83,0.54c-0.89-0.26-1.7-0.45-1.7-0.45s0.79,1.04,0.15,1.13
				c-0.63,0.09-1.5-1.24-1.77-1.66c-1.67-0.45-8.75-1.32-11.57-4.94C157.66,103.32,158.24,103.23,158.24,103.23z"/>
			<path class="st8" d="M162.14,107.95C162.13,107.95,162.13,107.95,162.14,107.95c-1.05-0.39-2.08-0.86-3-1.44
				c-0.01-0.01-0.02-0.01-0.04-0.02l1.13-1.54c0.66,0.45,1.49,0.94,2.51,1.4C162.09,106.46,161.1,107.11,162.14,107.95z"/>
			<path class="st9" d="M172.96,110.19c-0.01,0-0.02,0-0.03-0.01c-0.84-0.31-1.82-0.51-1.83-0.51c-0.04-0.01-0.06-0.04-0.05-0.07
				c0.01-0.03,0.05-0.05,0.09-0.04c0.01,0,1.01,0.21,1.86,0.52c0.04,0.01,0.05,0.05,0.04,0.08
				C173.01,110.17,172.99,110.19,172.96,110.19z"/>
			<path class="st9" d="M173.12,109.43c-0.01,0-0.02,0-0.03-0.01c-0.34-0.12-1.27-0.34-1.89-0.43c-0.04,0-0.06-0.04-0.06-0.07
				c0.01-0.03,0.04-0.05,0.08-0.05c0.63,0.09,1.57,0.31,1.92,0.44c0.04,0.01,0.05,0.05,0.04,0.08
				C173.17,109.42,173.14,109.43,173.12,109.43z"/>
			<path class="st9" d="M173.01,108.84c-0.01,0-0.01,0-0.02,0c-0.01,0-1.13-0.3-1.75-0.31c-0.04,0-0.07-0.03-0.07-0.06
				c0-0.03,0.03-0.06,0.07-0.06h0c0.64,0.02,1.74,0.31,1.79,0.32c0.04,0.01,0.06,0.04,0.04,0.07
				C173.07,108.82,173.04,108.84,173.01,108.84z"/>
		</g>
		<g>
			<path class="st7" d="M129.42,95.21c1,1.54,4.44,7.51,11.21,5.97c0.08,1.5,0.27,1.65,0.27,1.65s-4.21,1.1-7.67-0.77
				c-4.14-2.23-5.16-5.48-5.16-5.48L129.42,95.21z"/>
			<path class="st8" d="M138.2,103.14c1.57-0.02,2.7-0.32,2.7-0.32s-0.18-0.15-0.27-1.65c-0.7,0.16-1.36,0.23-1.99,0.25
				C139.4,101.61,139.75,102.62,138.2,103.14z"/>
		</g>
		<g>
			<g>
				<g>
					<path class="st7" d="M154.34,125.78c0,0,2.24,6.36,5.06,10.38c-0.84,0.64-1.99,0.64-1.99,0.64s-3.98-5.86-5.23-10.6
						C153.12,126.02,154.34,125.78,154.34,125.78z"/>
				</g>
				<g>
					<path class="st8" d="M152.18,126.19c0.94-0.17,2.16-0.42,2.16-0.42s0.36,1.04,0.99,2.54l0,0.01c0,0-0.68-1.31-1.85-1.02
						c-0.52,0.13-0.65,0.51-0.63,0.89C152.57,127.52,152.35,126.85,152.18,126.19z"/>
				</g>
			</g>
		</g>
		<g>
			<g>
				<g>
					<path class="st7" d="M144.03,125.91c0,0-1.19,6.54-0.66,11.16c-1.09,0.3-2.13-0.09-2.13-0.09s-0.65-6.68,0.62-11.42
						C142.79,125.72,144.03,125.91,144.03,125.91z"/>
				</g>
				<g>
					<path class="st8" d="M141.85,125.56c0.94,0.16,2.18,0.35,2.18,0.35s-0.17,0.94-0.36,2.36c-0.34-0.77-1.5-1.28-2.27-0.46
						C141.51,127.03,141.66,126.27,141.85,125.56z"/>
				</g>
			</g>
		</g>
		<g>
			<path d="M155.08,115.87c0.31,0.68,1.09,4.92,3.52,9.01c-3.66,2.76-18.73,1.94-20.3,0.12c0.16-1.79,1.26-7.79,2.86-10.39
				C146.84,116.18,155.08,115.87,155.08,115.87z"/>
			<path class="st10" d="M154.75,116.15c0,0,0.82,4.05,2.85,8.01c-0.71-0.64-1.59-1.96-2.89-3.06c-5.35-4.54-12.91-5.15-14.87-1.98
				c0.39-2.04,1.61-4.11,1.61-4.11L154.75,116.15z"/>
		</g>
		<g>
			<g>
				<path class="st2" d="M131.62,83.22c1.72,3.74-0.66,7.91-5.31,9.34c-4.64,1.43-9.8-0.45-11.51-4.18
					c-1.72-3.74,0.65-7.92,5.3-9.34C124.75,77.61,129.9,79.48,131.62,83.22z"/>
				<path class="st3" d="M126.31,92.55c2.49-0.76,4.29-2.32,5.2-4.17l-12.47,3.83C121.21,93.11,123.83,93.32,126.31,92.55z"/>
				<path class="st11" d="M124.58,90.47c0.02,0.37,0.09,1.58,0.12,1.98l2.87,6.25c0.28,0.62,1.13,0.93,1.88,0.7
					c0.76-0.23,1.14-0.92,0.85-1.54l-2.86-6.25c-0.27-0.17-1.04-1.13-1.51-1.55L124.58,90.47z"/>
			</g>
		</g>
		<g>
			<g>
				<g>
					<path class="st7" d="M129.28,95.48c0,0,0.67-1.13-0.58-1.41c-0.59-0.13-1.26,0.43-1.16,0.67c0.24,0.6,1.42,0.18,1.42,0.18
						L129.28,95.48z"/>
				</g>
			</g>
			<g>
				<path class="st7" d="M125.59,95.39c0.42-0.64,1.6-0.88,2.07-0.38c0.23,0.24,0.17,0.63-0.18,0.79c1.19-0.02,1.25,0.96,0.69,1.25
					c0.72,0.07,0.69,0.88,0.34,1.08c-0.49,0.28-1.09,0.41-1.77,0.04C126.01,97.78,124.95,96.36,125.59,95.39z"/>
			</g>
			<path class="st8" d="M127.83,97.1c0.56-0.3,0.5-1.27-0.69-1.25c0.35-0.16,0.4-0.55,0.17-0.79c-0.18-0.19-0.47-0.26-0.77-0.26
				c-0.12,0.03-0.23,0.07-0.34,0.12c0.14,0.04,0.26,0.1,0.36,0.2c0.23,0.24,0.17,0.63-0.17,0.79c1.19-0.02,1.25,0.96,0.69,1.25
				c0.72,0.07,0.69,0.88,0.34,1.08c-0.08,0.04-0.16,0.07-0.24,0.11c0.14,0.04,0.28,0.06,0.41,0.06c0.21-0.04,0.4-0.12,0.58-0.23
				C128.52,97.97,128.55,97.17,127.83,97.1z"/>
			<path class="st9" d="M125.75,96.41c-0.03,0-0.05-0.01-0.07-0.03c-0.04-0.03-0.03-0.08,0.01-0.12c0.78-0.57,1.52-0.6,1.88-0.57
				c0.05,0.01,0.09,0.05,0.09,0.09c-0.01,0.04-0.06,0.08-0.11,0.07c-0.33-0.03-1,0-1.73,0.53C125.8,96.4,125.78,96.41,125.75,96.41z
				"/>
			<path class="st9" d="M126.39,97.69c-0.03,0-0.05-0.01-0.07-0.02c-0.04-0.03-0.04-0.08,0-0.12c0.48-0.37,1.15-0.57,1.94-0.58h0
				c0.05,0,0.1,0.04,0.1,0.08c0,0.04-0.04,0.08-0.1,0.08c-0.76,0.01-1.37,0.19-1.81,0.53C126.44,97.68,126.41,97.69,126.39,97.69z"
				/>
		</g>
		<path class="st7" d="M148.49,99.59c0,0,0.24-0.01,1.26-0.05c0.12-0.57,0.13-1.5,0.13-1.5l2.09,0.2c0,0-0.07,0.93-0.19,1.51
			c0.56,0.2,1.34,0.38,1.34,0.38s-0.61,1.08-3.08,0.78C147.58,100.61,148.49,99.59,148.49,99.59z"/>
		<path class="st8" d="M151.78,99.75c0.07-0.5,0.19-1.51,0.19-1.51l-2.09-0.2c0,0-0.07,0.98-0.13,1.5
			C149.92,99.79,150.89,100.01,151.78,99.75z"/>
		<g>
			<path class="st3" d="M147.8,99.72c-1.53,0.08-5.3,0.23-6.91,0.87c-0.69,1.2-0.51,3.47,0.23,4.11c2.05-0.13,4.77-1.05,4.77-1.05
				L147.8,99.72z"/>
			<path class="st12" d="M141.58,101.57c0.56,3.19,1.87,1.11,3.22-0.65c-0.77,2.89-1.87,3.29-1.87,3.29s-0.77,0.23-1.21,0.15
				C141.37,103.51,141.3,102.68,141.58,101.57z"/>
			<path class="st12" d="M144.39,100.06c0.89-0.06,1.01,0.41,0.16,0.45c-0.85,0.04-2.01,0.02-3.01,0.35
				C142.54,100.36,143.97,100.09,144.39,100.06z"/>
		</g>
		<g>
			<path class="st3" d="M149.47,100.74c-0.65,0.02-1.6-0.75-1.09-1.11c-2.5,0.21-3.28,0.75-4.57,2.59
				c-1.21,1.73-2.49,4.32-4.38,11.62c1.42,2.56,15.14,3.35,16.87,2.35c0.36-1.72-1.31-8.28-0.46-14.42
				c-0.31-0.73-0.96-1.17-2.46-1.58C151.92,100.92,150.88,100.98,149.47,100.74z"/>
			<path class="st12" d="M154.82,104.66c-0.34,1.61-3.24,8.57-7.46,9.64c-4.23,1.07-7.2-0.61-6.61-3.68
				c-0.53,1.62-1.01,3.01-0.73,3.29c0.78,0.9,7.53,2.98,15.68,2.03c0.15-2.58-0.51-9.8-0.65-11.2
				C154.91,103.33,154.82,104.66,154.82,104.66z"/>
			<path class="st12" d="M149.09,99.55c-0.33,0.13-0.82,0.61,0.64,0.88c1.24,0.23,2.61-0.01,2.76-0.42
				c0.61-0.12,1.49,0.19,1.49,0.38c-0.97,0.85-2.67,1.1-4.85,0.7c-1.99-0.36-1.76-1.08-1.29-1.42
				C148.37,99.38,149.09,99.55,149.09,99.55z"/>
			<path class="st12" d="M144.71,102.4c1.74-1.77,3.71-0.78,1.99,0.87c-1.72,1.65-3.78,2.84-5.03,5.39
				C142.46,105.77,143.87,103.25,144.71,102.4z"/>
		</g>
		<g>
			<path class="st3" d="M154.87,100.79c1.98,0.69,4.53,2.12,5.98,3.76c-0.31,0.78-2.52,2.76-3.44,2.83c-1.04-0.4-3.07-2.1-3.07-2.1
				S153.17,102.36,154.87,100.79z"/>
			<path class="st12" d="M154.51,105.15c0,0,3.05,1.62,5.63-0.84c-0.94,1.18-2.63,2.35-3.13,2.36
				C156.21,106.42,154.51,105.15,154.51,105.15z"/>
			<path class="st12" d="M156.01,101.55c-1.04-0.34-1.39,0.18-0.39,0.49c1,0.3,2.39,0.63,3.45,1.32
				C158.09,102.47,156.51,101.71,156.01,101.55z"/>
		</g>
		<path class="st2" d="M158.38,124.51c-1.85,1.17-10.95,2.48-20.04,0.09c-0.13,0.43-0.13,0.82-0.13,0.82s2.81,1.33,10.05,1.35
			c7.24,0.03,10.62-1.51,10.62-1.51L158.38,124.51z"/>
		<path class="st10" d="M142.41,119.44c-0.6-1.07-3.07,0.93-2.78,3.26c0.27,2.21,7.06,2.74,7.63,1.86
			C147.83,123.69,144.27,122.76,142.41,119.44z"/>
		<g>
			<path class="st2" d="M143.36,136.03c0.71,0.48,1.06,1.81,0.44,2.61c-1.27,1.03-4.88,1.87-7.07,0.77
				c-2.05-1.02-1.34-2.45-0.14-2.89c0.97-0.36,2.83,0.39,4.1-0.8c0.28-0.51,1.28-0.28,0.9,0.71
				C142.45,137.01,143.36,136.03,143.36,136.03z"/>
			<g>
				<path class="st13" d="M136.72,139.25c-0.76-0.38-1.12-0.82-1.2-1.24c0.09,0.06,0.19,0.11,0.3,0.17c2.08,1.04,5.5,0.25,6.7-0.73
					c0.23-0.29,0.31-0.65,0.3-1.01c0.14-0.07,0.27-0.16,0.36-0.24c0.55,0.54,0.78,1.63,0.24,2.32
					C142.22,139.5,138.8,140.29,136.72,139.25z"/>
			</g>
			<path class="st14" d="M143.98,138.45c0,0,0.23,0.62-0.21,1.05c-1.41,0.93-4.36,1.27-6.18,0.87c-1.82-0.4-2.34-1.32-1.91-1.84
				C137.32,139.4,140.27,140.4,143.98,138.45z"/>
			<g>
				<path class="st15" d="M143.05,139.32c0.18-0.17,0.24-0.37,0.26-0.56c0.22-0.1,0.44-0.2,0.66-0.32c0,0,0.23,0.62-0.21,1.05
					c-1.41,0.93-4.36,1.27-6.18,0.87c-0.17-0.04-0.33-0.08-0.48-0.13C138.93,140.56,141.7,140.22,143.05,139.32z"/>
			</g>
			<path class="st16" d="M141.44,136.66c0.41,0.53-0.99,0.93-1.27,0.73c-0.46-0.31-1.04-0.82-1.44-0.99c0-0.2,1.01-0.64,1.48-0.5
				C140.68,136.02,141.23,136.39,141.44,136.66z"/>
			<path class="st15" d="M140.11,136.73c0.23,0.08,0.8-0.03,0.98-0.32c0.06,0.05,0.11,0.11,0.15,0.16c0.36,0.47-0.86,0.81-1.11,0.64
				c-0.4-0.27-0.91-0.72-1.26-0.87c0-0.06,0.09-0.14,0.23-0.21C139.39,136.31,139.64,136.57,140.11,136.73z"/>
		</g>
		<g>
			<path class="st2" d="M158.88,135.22c0.89,0.19,1.88,1.28,1.73,2.22c-0.63,1.37-3.49,3.35-6.04,3.1c-2.38-0.24-2.46-1.77-1.6-2.59
				c0.7-0.66,2.77-0.6,3.32-2.12c0-0.56,1.02-0.68,1.18,0.34C158.54,136.41,158.88,135.22,158.88,135.22z"/>
			<g>
				<path class="st13" d="M152.98,139.71c2.4,0.35,5.24-1.4,5.93-2.67c0.1-0.4-0.04-0.84-0.28-1.23c0.07-0.13,0.11-0.22,0.11-0.22
					c0.83,0.22,1.7,1.3,1.49,2.18c-0.68,1.27-3.52,3.02-5.93,2.67c-0.76-0.11-1.25-0.35-1.54-0.65c-0.04-0.05-0.08-0.09-0.11-0.15
					C152.75,139.67,152.86,139.7,152.98,139.71z"/>
			</g>
			<path class="st14" d="M160.66,137.2c0,0,0.52,0.49,0.34,1.03c-0.81,1.33-3.32,2.63-5.18,2.89c-1.86,0.26-2.8-0.41-2.67-1.03
				C155.08,140.33,158.27,140.24,160.66,137.2z"/>
			<g>
				<path class="st15" d="M160.26,138.32c0.07-0.22,0.03-0.42-0.05-0.6c0.15-0.16,0.3-0.33,0.44-0.52c0,0,0.52,0.49,0.34,1.03
					c-0.81,1.33-3.32,2.63-5.18,2.89c-0.18,0.02-0.34,0.04-0.5,0.05C157.14,140.84,159.49,139.59,160.26,138.32z"/>
			</g>
			<path class="st16" d="M157.44,136.44c0.64,0.35-0.43,1.18-0.78,1.1c-0.58-0.13-1.36-0.39-1.82-0.42
				c-0.1-0.19,0.59-0.92,1.09-0.96C156.43,136.12,157.12,136.26,157.44,136.44z"/>
			<path class="st15" d="M156.34,136.97c0.25-0.01,0.72-0.3,0.74-0.64c0.08,0.03,0.16,0.06,0.22,0.09c0.57,0.31-0.38,1.04-0.69,0.98
				c-0.51-0.11-1.21-0.35-1.61-0.37c-0.03-0.05,0.02-0.16,0.1-0.27C155.45,136.84,155.82,136.99,156.34,136.97z"/>
		</g>
		<g>
			<g>
				<g>
					<path class="st7" d="M134.75,73.2c-2.88,4.55-6.08,18.95,9.63,24.41c15.63,5.42,26.31-2.63,30.56-11.56
						c5.12-10.77-4.25-19.08-13.61-21.41C146.72,61.01,138.6,67.11,134.75,73.2z"/>
					<path class="st8" d="M134.75,73.2c3.85-6.09,11.97-12.19,26.58-8.56c9.36,2.33,18.73,10.64,13.61,21.41
						c-0.55,1.16-1.21,2.3-1.98,3.4c-7.65-6.01-6.49-15.2-6.49-15.2c-5.29,6.75-17.61,0.31-20.09-2.15
						c-4.92-4.88-11.88,0.75-13.12,5.08c-0.09,0.11-0.17,0.2-0.26,0.3C133.45,75.7,134.11,74.21,134.75,73.2z"/>
					<path class="st17" d="M141.68,86.84c-0.27,1.2-2.6,1.82-4.73,1.07c-2.12-0.75-3-2.36-2.57-3.78c0.39-1.29,2.62-2.07,4.53-0.45
						C140.71,85.21,141.96,85.6,141.68,86.84z"/>
					<path class="st18" d="M136.23,84.16c-0.04,0.16-0.28,0.24-0.52,0.2c-0.25-0.04-0.41-0.21-0.37-0.36
						c0.04-0.15,0.28-0.24,0.52-0.2C136.1,83.84,136.27,84.01,136.23,84.16z"/>
					<path class="st19" d="M149.05,84.93c-0.04,0.16-0.31,0.24-0.6,0.19c-0.29-0.05-0.49-0.22-0.45-0.38
						c0.04-0.15,0.31-0.24,0.6-0.18C148.89,84.6,149.09,84.77,149.05,84.93z"/>
					<path class="st17" d="M165.39,90.68c-0.51,1.61-2.71,2.41-5.33,2.07c-2.53-0.33-4.67-2.31-3.83-3.74
						c0.8-1.36,2.03-0.62,5.15-0.99C164.4,87.67,165.91,89.07,165.39,90.68z"/>
					<path class="st18" d="M163.84,89.54c-0.05,0.15-0.27,0.23-0.51,0.18c-0.23-0.05-0.38-0.21-0.34-0.36
						c0.05-0.14,0.27-0.22,0.51-0.18C163.74,89.23,163.89,89.39,163.84,89.54z"/>
					<path class="st20" d="M139.33,74.89c2-1.17,3.35,0.7,1.87,1.14c-1.59,0.47-2.71,1.33-2.96,1.26
						C137.68,77.13,138.21,75.54,139.33,74.89z"/>
					<path class="st20" d="M165.5,80.65c-0.97-1.85-3.31-0.82-2.32,0.18c1.06,1.07,1.47,2.28,1.73,2.33
						C165.48,83.27,166.05,81.68,165.5,80.65z"/>
					<path class="st8" d="M175.21,85.69c1.33-3.03,0.86-5.83-0.68-8.31c0.7,2.03,0.71,4.77-0.33,7.16
						c-3.88,8.84-15.5,16.97-29.65,11.68c-9.74-3.64-11.53-11.6-11.17-17.58c-0.86,6.07-0.21,13.61,11.15,18.29
						C157.9,102.41,171.33,94.53,175.21,85.69z"/>
				</g>
				<g>
					<path class="st21" d="M143.59,87.69c0,0-1.98,7.06,4.12,8.35c6.09,1.29,6.35-5.87,6.35-5.87S149.39,90.65,143.59,87.69z"/>
					<path class="st22" d="M149.15,89.7c-0.1,1.78,0.21,4.36,2.51,5.71c2.27-1.63,2.4-5.24,2.4-5.24S152.09,90.37,149.15,89.7z"/>
					<path class="st23" d="M144.34,93.98c0.66,0.94,1.72,1.71,3.37,2.06c3.01,0.64,4.6-0.79,5.43-2.4
						c-0.19-0.35-1.13-0.79-2.16-0.49C150.1,91.68,146.09,92.41,144.34,93.98z"/>
					<path class="st24" d="M152.09,93.4c-0.45-0.2-1.06-0.14-1.33-0.04c-0.17-0.3-0.46-0.66-1.39-0.75
						c-2.28-0.25-5.31,1.49-2.49,2.64C149.75,96.41,153.76,94.12,152.09,93.4z"/>
					<path class="st25" d="M147.34,93.19c0.53-0.36,1.77-0.53,2.08-0.25c0.37,0.33-0.73,0.75-1.43,0.77
						C147.28,93.74,147,93.42,147.34,93.19z"/>
					<path class="st26" d="M145.33,88.49c-0.33,0.73-0.25,1.31,0.92,1.81c1.09,0.46,2.73,0.87,3.89,0.97
						c1.39,0.12,2.14-0.32,2.16-1.1C149.94,89.94,148.07,89.58,145.33,88.49z"/>
				</g>
				<path class="st9" d="M148.18,86.77c-0.03,0.01-0.06,0-0.08-0.01c-0.76-0.37-1.09-0.97-0.89-1.6c0.18-0.58,0.79-1.04,1.41-1.06
					c0.38-0.01,1.1,0.13,1.55,1.22c0.02,0.05-0.01,0.1-0.07,0.12c-0.07,0.02-0.13-0.01-0.15-0.06c-0.3-0.72-0.77-1.11-1.32-1.09
					c-0.53,0.01-1.04,0.41-1.19,0.92c-0.08,0.26-0.17,0.92,0.79,1.39c0.05,0.03,0.07,0.08,0.04,0.13
					C148.24,86.75,148.22,86.77,148.18,86.77z"/>
				<g>
					<path class="st8" d="M157.24,81.21c-1.87,1.28-2.19,3.49-0.71,4.93c1.48,1.44,4.2,1.58,6.07,0.3c1.87-1.28,2.19-3.49,0.71-4.93
						C161.83,80.06,159.11,79.93,157.24,81.21z"/>
					<path class="st8" d="M161.71,86.13c1.32,0.35,1.49,0.91,0.39,1.24c-1.1,0.33-3.07,0.31-4.38-0.04
						c-1.32-0.36-1.49-0.91-0.39-1.25C158.43,85.75,160.39,85.77,161.71,86.13z"/>
					<path class="st26" d="M157.13,81.07c-1.83,1.25-2.14,3.4-0.7,4.81c1.44,1.41,4.09,1.54,5.92,0.29c1.83-1.25,2.14-3.4,0.69-4.81
						C161.6,79.96,158.96,79.83,157.13,81.07z"/>
					<path class="st27" d="M163.32,82.99c0.03,0.91-0.46,1.85-1.41,2.51c-1.62,1.11-3.96,0.99-5.24-0.26
						c-0.36-0.35-0.59-0.75-0.71-1.17c0.02,0.63,0.28,1.25,0.8,1.75c1.28,1.25,3.62,1.36,5.24,0.26
						C163.16,85.28,163.62,84.07,163.32,82.99z"/>
					<path class="st28" d="M155.95,83.47c-0.31,1.02,0.39,2.05,1.57,2.29c1.18,0.24,2.39-0.39,2.71-1.41
						c0.31-1.02-0.39-2.05-1.57-2.29C157.48,81.82,156.27,82.45,155.95,83.47z"/>
					<path d="M156.15,83.77c-0.19,0.63,0.24,1.27,0.97,1.42c0.73,0.15,1.48-0.24,1.68-0.87c0.19-0.63-0.24-1.27-0.97-1.42
						C157.1,82.75,156.35,83.14,156.15,83.77z"/>
					<path class="st26" d="M156.29,83.1c-0.08,0.26,0.1,0.52,0.4,0.58c0.3,0.06,0.61-0.1,0.69-0.36c0.08-0.26-0.1-0.52-0.4-0.58
						C156.68,82.68,156.37,82.84,156.29,83.1z"/>
					<path class="st26" d="M157.67,84.99c-0.05,0.16,0.06,0.31,0.24,0.35c0.18,0.04,0.37-0.06,0.42-0.22
						c0.05-0.16-0.06-0.31-0.24-0.35C157.91,84.74,157.72,84.83,157.67,84.99z"/>
				</g>
				<g>
					<path class="st8" d="M145.58,80c0.29,1.73-1.09,3.32-3.1,3.55c-2,0.23-3.87-1-4.16-2.73c-0.29-1.73,1.09-3.32,3.09-3.55
						C143.42,77.05,145.28,78.27,145.58,80z"/>
					<path class="st8" d="M143.61,82.76c1.15,0.31,1.3,0.79,0.34,1.08c-0.96,0.29-2.67,0.27-3.82-0.04c-1.15-0.31-1.3-0.8-0.34-1.09
						C140.76,82.43,142.46,82.45,143.61,82.76z"/>
					<path class="st26" d="M145.17,80c0.29,1.71-1.08,3.28-3.06,3.51c-1.98,0.22-3.82-0.98-4.11-2.7c-0.29-1.72,1.08-3.29,3.06-3.51
						C143.04,77.08,144.88,78.28,145.17,80z"/>
					<path class="st27" d="M144.7,80.23c-0.06-0.34-0.19-0.65-0.38-0.94c0.07,0.17,0.12,0.35,0.15,0.53
						c0.25,1.51-0.95,2.89-2.69,3.09c-1.03,0.12-2.02-0.22-2.71-0.82c0.66,0.81,1.79,1.3,2.99,1.16
						C143.78,83.06,144.96,81.7,144.7,80.23z"/>
					<path class="st28" d="M142.3,81.01c-0.28,0.91-1.36,1.47-2.41,1.26c-1.05-0.22-1.67-1.13-1.4-2.03
						c0.28-0.91,1.36-1.47,2.41-1.26C141.95,79.19,142.58,80.1,142.3,81.01z"/>
					<path d="M140.97,80.92c-0.17,0.54-0.81,0.88-1.44,0.75c-0.63-0.13-1-0.67-0.84-1.22c0.17-0.54,0.81-0.88,1.44-0.75
						C140.77,79.83,141.14,80.38,140.97,80.92z"/>
					<path class="st26" d="M139.86,80.08c-0.07,0.23-0.34,0.37-0.61,0.32c-0.27-0.05-0.42-0.28-0.35-0.52
						c0.07-0.23,0.34-0.37,0.61-0.32C139.77,79.61,139.93,79.85,139.86,80.08z"/>
					<path class="st26" d="M140.77,81.54c-0.04,0.14-0.21,0.23-0.37,0.19c-0.16-0.03-0.26-0.17-0.21-0.31
						c0.04-0.14,0.21-0.23,0.37-0.19C140.72,81.26,140.82,81.4,140.77,81.54z"/>
				</g>
			</g>
			<g>
				<path class="st4" d="M156.36,57.24c15.15,0.8,19.07,8.66,19.07,8.66s5.46,0.9,7.54,7.91c2.41,8.14-2.94,12.92-7.99,17.39
					c-11.54-5.31-7.62-17.96-7.62-17.96c-5.4,6.9-17.98,0.31-20.52-2.2c-5.02-4.98-12.13,0.76-13.4,5.19
					C130.27,67.31,141.86,56.47,156.36,57.24z"/>
				<path class="st29" d="M137.63,63.69c-1.65,1.55-2.92,3.29-3.73,5.1c10.88-1.4,21.12,2.31,29.12,7.2
					c1.67-0.41,3.17-1.27,4.34-2.76c0,0-0.69,2.23-0.63,5.21c5.07,3.63,8.91,7.53,10.93,10.32c1.71-1.63,3.29-3.37,4.38-5.35
					C172.66,71.9,148.79,64.02,137.63,63.69z"/>
				<path class="st30" d="M175.26,68.99c1.64-0.61,7.72,6.28,4.61,11.76c-0.45-4.57-2.39-6.41-2.39-6.41s2.26,3.42-0.16,9.79
					c-1.37-7.6-4.75-10.18-4.75-10.18s1.5,5.57,2.87,8.6c-5.14-5-5.78-11.55-4.1-12.76c1.65-0.93,4.89,5.32,4.89,5.32
					S173.84,69.52,175.26,68.99z"/>
				<path class="st30" d="M170.87,65.13c-3.41-3.95-9.99-8.51-23.93-5.55c7.11-0.55,11.75,1.36,11.75,1.36s-15.74-0.82-21.92,5.67
					c5.39-3.61,16.75-5.38,26-2.11c-5.96,1.07-14.48,0.96-14.48,0.96s12.71,3.28,18.02,0.6c-4.14,3.3-9.58,3.82-9.58,3.82
					s9.76,0.16,13.34-3.94c-2.53-1.92-5.83-3.42-11.55-3.95C163.66,60.31,170.87,65.13,170.87,65.13z"/>
				<path class="st29" d="M169.12,71.46c-0.01,0.37-4.72,12.98,7.11,19.61c5.03-3.73,5.03-8.93,5.03-8.93s-2.66,4.45-5.37,3.16
					C167.82,81.45,169.12,71.46,169.12,71.46z"/>
				<path class="st29" d="M167.54,71.01c-4.39,3.61-11.95,3.7-17.52-0.41c-5.57-4.11-8.84-2.97-10.45-1.5
					c2.63-1.02,4.73-1.24,8.05,1.29C155.13,76.12,164.37,77.05,167.54,71.01z"/>
			</g>
			<g>
				<path class="st7" d="M171.18,88.12c0,0,1.79-1.83,4.53-0.87c2.89,1.02,1.68,4.57-1.24,5.85c-2.93,1.28-6.16,0.15-5.91-1.86
					L171.18,88.12z"/>
				<path class="st8" d="M175.29,87.32c-0.7-0.24-1.33-0.29-1.88-0.24c0.43-0.03,0.89,0.02,1.35,0.2c2.66,1.05,1.32,3.65-0.54,4.75
					c-2.51,1.49-5.12,0.64-5.64-1c-0.23,1.87,2.8,2.92,5.55,1.74C176.88,91.58,178,88.27,175.29,87.32z"/>
				<path class="st31" d="M175.58,88.38c-1.53-1.13-5.1,1.1-3.85,3.76c0.52-2.54,1.96-2.81,2.49-1.22c0.48-0.68,0.36-1.31-0.75-1.75
					C174.21,88.32,175.58,88.38,175.58,88.38z"/>
			</g>
			<path class="st3" d="M178.12,89.26c-1.02-4.86-20.32-25.11-44.34-20.54c0.72-1.87,2.26-5.13,4.32-5.51
				c16.05-2.94,38.38,5.4,43.75,20.38C182.18,85.84,179.3,88.83,178.12,89.26z"/>
			<g>
				<g>
					<path class="st12" d="M178.52,88.7c1.03-1.5,3.55-3.39,2.61-5.59c-1.26-2.26-4.92-6.09-6.73-7.9l-0.15-0.11
						c1.5,1.4,4.13,6.17,1.71,6.41c-1.35,0.13-2.83-0.61-3.88-1.29C174.08,81.82,177.61,85.08,178.52,88.7z"/>
				</g>
			</g>
			<path class="st12" d="M142.16,63.26c-4.52,0.11-7.66,2.78-3.99,3.26c3.34,0.44,10.12-3.97,23.31,0.53
				C158.27,65.08,152.36,63.02,142.16,63.26z"/>
		</g>
	</g>
	<g>
		<path class="st32" d="M-18.34,126.77c0,0-1.41,2.54-10.4-0.95c-0.46,0.66-0.46,2.09-0.46,2.09s10.7,4.29,13.37-0.43
			C-16.38,126.21-18.34,126.77-18.34,126.77z"/>
		<path class="st33" d="M-19.65,127.52C-19.65,127.51-19.65,127.51-19.65,127.52c1.04-0.26,1.31-0.74,1.31-0.74s1.96-0.56,2.51,0.71
			c-0.36,0.63-0.86,1.09-1.45,1.44C-16.96,128.39-18.04,127.34-19.65,127.52z"/>
	</g>
	<g>
		<path class="st34" d="M-27.05,128.64c0,0,0.19-1.33,1-1.97c0.2,0.05,0.53,0.15,0.53,0.15s0.35-0.92-0.72-0.68
			c-0.57-0.24-2.1-0.74-2.91-1.04c-0.78,0.67-1.33,2.38-1.33,2.38s2.34,0.93,2.91,1.15c-0.05,0.68,1.15,0.74,1.23,0.22
			C-26.63,128.74-27.05,128.64-27.05,128.64z"/>
		<path class="st35" d="M-25.54,126.92c0,0-0.32-0.09-0.52-0.14c-0.21,0.06-0.35,0.25-0.43,0.4c0.14-0.54-0.14-1.16-0.78-0.17
			c-0.13-1.84-2.55,0.42-1.41,1.19c-0.84-0.33-1.8-0.71-1.8-0.71s0.55-1.71,1.33-2.38c0.81,0.31,2.34,0.8,2.91,1.04
			C-25.17,125.91-25.54,126.92-25.54,126.92z"/>
		<path class="st2" d="M-27.8,125.53c0.3-0.52-0.34-0.71-1.56-1.06c-1.13-0.33-1.79-1.27-2.47-1.03c-2.62,1.42-4.54,6.85-2.23,8.22
			c2.41,1.22,4.73-0.16,3.47-1.76c0.23-0.33,0.51-1.31,0.44-1.71c0.43,0.24,0.81,0.25,1.07-0.12
			C-29.41,127.85-28.98,125.99-27.8,125.53z"/>
		<path class="st13" d="M-31.84,131.95c0.8-0.1,1.62-0.65,1.42-1.17c-0.2-0.52-1.8,1.37-3.01,0.43
			C-33.11,131.99-32.11,131.98-31.84,131.95z"/>
		<path class="st13" d="M-27.88,125.56c-0.22,0.09-0.34,0.19-0.52,0.36c-0.99-0.38-1.6-1.17-2.23-0.94
			c-2.04,1.11-3.65,4.62-3.18,6.78c-0.09-0.04-0.17-0.07-0.25-0.11c-2.31-1.37-0.29-6.53,2.33-7.96c0.68-0.25,1.04,0.64,2.17,0.96
			C-28.34,125.02-27.57,125.04-27.88,125.56z"/>
		<path class="st36" d="M-33.61,131.86c-0.83-0.72-0.71-6.52,3.02-8.05c0.03-0.49-0.97-1.01-1.42-0.84
			c-1.46,0.91-2.61,2.11-3.28,4.51c-0.59,2.11-0.13,3.77,0.4,4.19C-34.17,132.32-33.61,131.86-33.61,131.86z"/>
		<path class="st37" d="M-30.79,123.9c-0.05,0.02-0.08,0.04-0.13,0.06c-0.25-0.1-0.31-0.22-0.49-0.15c-1.46,0.91-2.6,2.11-3.28,4.51
			c-0.41,1.47-0.17,2.51,0.1,3.28c-0.06-0.04-0.11-0.07-0.16-0.12c-0.54-0.42-0.95-1.76-0.39-3.88c0.52-1.97,1.64-3.46,3.1-4.37
			C-31.59,123.06-30.76,123.41-30.79,123.9z"/>
		<path class="st38" d="M-30.54,129.95c-0.36,0.28-1.19,0.17-1.55-0.16c-0.39-0.39,0.18-1.51,0.62-1.87
			c0.72-0.07,1.32,0.26,1.32,0.26S-29.64,129.26-30.54,129.95z"/>
		<path class="st39" d="M-30.03,128.57c-0.22-0.09-0.67-0.24-1.17-0.19c-0.34,0.29-0.53,1.04-0.51,1.54
			c-0.05-0.03-0.1-0.06-0.14-0.1c-0.39-0.39-0.01-1.36,0.43-1.72c0.72-0.07,1.26,0.17,1.26,0.17S-30.07,128.34-30.03,128.57z"/>
	</g>
	<g>
		<path class="st32" d="M-7.86,125.94c0,0,0.68,3.39-4.82,8.64c0.58,0.53,2.04,0.89,2.04,0.89s5.83-3.46,5.69-10.2
			C-6.5,125.29-7.86,125.94-7.86,125.94z"/>
		<path class="st33" d="M-8.27,128.55c0,0,0-0.02-0.01-0.04c0.61-1.63,0.43-2.57,0.43-2.57s1.36-0.64,2.9-0.67
			c0.03,1.17-0.13,2.23-0.4,3.2C-5.65,127.12-7.78,127.75-8.27,128.55z"/>
	</g>
	<g>
		<path d="M-15.63,117.7c0,0,3.28,5.4,3.42,8.5c0.76,0.75,9.28-0.23,9.37-1.52c-0.09-2.2-1.4-6.84-2.7-8.37
			C-10.7,116.64-15.63,117.7-15.63,117.7z"/>
		<path class="st10" d="M-4.74,118.99c-0.74-1.56-2.22-1.78-1.83-0.2c0.39,1.58,1.76,2.28,2.13,3.36
			C-4.45,120.79-4.36,119.79-4.74,118.99z"/>
		<path class="st10" d="M-10.89,119.36c-0.2,1.16-1.5,3.88-1.37,6.82c0.72,0.71,8.77-0.22,8.84-1.43c-0.1-0.74-0.23-1.94-0.69-2.96
			c0.3,3-2.99,4.51-4.76,3.26C-10.65,123.78-10.2,119.98-10.89,119.36z"/>
		<path class="st2" d="M-2.81,124.54c0,0-3.88,2.07-9.42,1.53c-0.2,0.37,0.11,0.79,0.11,0.79s4.91,0.84,9.31-1.37
			C-2.4,125.05-2.81,124.54-2.81,124.54z"/>
	</g>
	<g>
		<path d="M-20.66,116.8c0,0,0.13,5.41-1.63,8.17c0.21,0.96,9.22,3.42,10.07,2.33c1.25-1.95,2.27-6.1,0.95-9.54
			C-15.96,115.98-20.66,116.8-20.66,116.8z"/>
		<path class="st10" d="M-11.34,121.27c-0.26-1.8-1.73-2.35-1.85-0.62c-0.12,1.73,0.97,3.49,0.86,5.26
			C-11.29,123.61-11.21,122.2-11.34,121.27z"/>
		<path class="st2" d="M-12.11,127.19c0,0-5.63,0.36-10.12-2.35c-0.4,0.24-0.38,0.73-0.38,0.73s4.77,2.59,9.93,2.44
			C-12.06,127.8-12.11,127.19-12.11,127.19z"/>
	</g>
	<g>
		<path class="st34" d="M-9.18,134.37c0,0-1.48-0.57-1.97-1.4c0.13-0.14,0.34-0.36,0.34-0.36s-0.95-0.56-1.02,0.34
			c-0.46,0.37-1.52,1.4-2.13,1.93c0.53,0.82,2.34,1.78,2.34,1.78s1.82-1.52,2.25-1.89c0.77,0.25,1.15-0.53,0.57-0.76
			C-9,134.21-9.18,134.37-9.18,134.37z"/>
		<path class="st35" d="M-10.81,132.61c0,0-0.21,0.24-0.34,0.38c0.05,0.09,0.11,0.15,0.18,0.23c-0.59-0.28-1.12,0-0.19,0.81
			c-2.18-0.49-0.32,2.1,0.93,1.47c-0.65,0.55-1.4,1.17-1.4,1.17s-1.81-0.97-2.34-1.78c0.61-0.53,1.67-1.56,2.13-1.93
			C-11.76,132.05-10.81,132.61-10.81,132.61z"/>
		<path class="st2" d="M-13.03,133.97c-0.51-0.4-0.93,0.04-1.72,0.88c-0.74,0.77-2.05,0.98-1.97,1.59c0.83,2.48,6.52,5.68,8.84,4.32
			c2.18-1.48,1.31-3.72-0.95-3.25c-0.32-0.29-1.36-0.81-1.85-0.88c0.41-0.26,0.55-0.55,0.2-0.87
			C-10.84,135.96-12.86,135.03-13.03,133.97z"/>
		<path class="st13" d="M-6.85,139.13c0.13-0.65-0.24-1.47-0.91-1.47c-0.66-0.01,1.03,1.83-0.45,2.47
			C-7.2,140.13-6.9,139.35-6.85,139.13z"/>
		<path class="st13" d="M-13.01,134.04c0.03,0.2,0.11,0.33,0.26,0.52c-0.75,0.64-1.86,0.87-1.8,1.43c0.64,1.93,4.22,4.29,6.87,4.61
			c-0.07,0.05-0.13,0.11-0.21,0.16c-2.33,1.36-7.68-1.84-8.5-4.32c-0.07-0.6,1.07-0.6,1.8-1.38
			C-13.79,134.23-13.52,133.64-13.01,134.04z"/>
		<path class="st36" d="M-7.51,140.48c-1.1,0.41-7.8-1.51-8.4-4.88c-0.56-0.17-1.47,0.43-1.43,0.84c0.59,1.42,1.63,2.69,4.2,3.97
			c2.26,1.13,4.34,1.29,4.99,1.01C-7.15,141.05-7.51,140.48-7.51,140.48z"/>
		<path class="st37" d="M-15.87,135.77c0.01,0.04,0.02,0.07,0.03,0.12c-0.2,0.16-0.35,0.18-0.33,0.33c0.59,1.42,1.63,2.69,4.2,3.97
			c1.58,0.79,2.86,0.93,3.84,0.96c-0.06,0.03-0.11,0.06-0.19,0.09c-0.65,0.29-2.34,0.18-4.63-0.92c-2.12-1.03-3.5-2.37-4.1-3.79
			C-17.1,136.12-16.42,135.6-15.87,135.77z"/>
		<path class="st38" d="M-8.76,137.49c0.21,0.37-0.18,0.98-0.67,1.15c-0.58,0.18-1.69-0.62-1.98-1.07c0.15-0.58,0.72-0.94,0.72-0.94
			S-9.28,136.58-8.76,137.49z"/>
		<path class="st39" d="M-10.2,136.66c-0.18,0.14-0.49,0.44-0.59,0.85c0.22,0.36,1.04,0.74,1.62,0.88
			c-0.05,0.03-0.11,0.06-0.16,0.08c-0.58,0.18-1.58-0.42-1.86-0.88c0.14-0.58,0.6-0.92,0.6-0.92S-10.48,136.62-10.2,136.66z"/>
	</g>
	<g>
		<path class="st32" d="M-23.87,103.08c0,0-3.44,4.32-12.14,5.36c-1.85,0.53,0.12,1.91,0.7,1.68c1.84-0.5,9.63-1.45,12.74-5.44
			C-23.22,103.19-23.87,103.08-23.87,103.08z"/>
		<path class="st33" d="M-28.16,108.28c0,0,0.01,0,0.01,0c1.15-0.42,2.28-0.94,3.29-1.59c0.01-0.01,0.03-0.02,0.04-0.02l-1.25-1.7
			c-0.72,0.5-1.65,1.03-2.77,1.54C-28.11,106.64-27.02,107.36-28.16,108.28z"/>
	</g>
	<g>
		<path class="st32" d="M-9.01,100.19c0,0,5.91,1.81,13.67-1.57c2.8-2.04,4.26-1.7,3.79-1.37c0.95-0.34,1.56,0.23,0.42,0.49
			c1.27-0.3,1.6,0.44,0.48,0.74c0.72-0.07,1.33,0.52-0.31,0.92c-1,0.25-1.87,0.51-1.87,0.51s1.53,0.51,1.04,0.92
			c-0.49,0.41-2.33-0.3-2.89-0.52c-1.84,0.49-8.81,3.5-14.21,1.79C-9.45,100.59-9.01,100.19-9.01,100.19z"/>
		<path class="st33" d="M-1.78,102.29c-0.01,0-0.01,0-0.01,0c-1.23,0.22-2.52,0.35-3.8,0.32c-0.02,0-0.03,0-0.05,0l-0.23-1.97
			c0.94,0.05,2.07,0.03,3.35-0.1C-3.01,101-3.37,102.11-1.78,102.29z"/>
		<path class="st33" d="M9.6,98.5c-0.01,0-0.02,0.01-0.03,0.01c-0.99,0.17-2.03,0.52-2.04,0.52c-0.04,0.01-0.09,0-0.1-0.04
			c-0.02-0.03,0-0.07,0.04-0.08c0.01,0,1.06-0.35,2.06-0.53c0.04-0.01,0.08,0.01,0.09,0.05C9.64,98.46,9.63,98.48,9.6,98.5z"/>
		<path class="st33" d="M9.14,97.75c-0.01,0.01-0.02,0.01-0.03,0.01c-0.4,0.07-1.4,0.38-2.01,0.63c-0.04,0.02-0.09,0-0.11-0.03
			c-0.02-0.03-0.01-0.07,0.04-0.08c0.64-0.26,1.63-0.57,2.05-0.64c0.04-0.01,0.08,0.01,0.09,0.05C9.18,97.71,9.16,97.74,9.14,97.75z
			"/>
		<path class="st33" d="M8.57,97.28c-0.01,0-0.01,0.01-0.02,0.01c-0.01,0-1.24,0.34-1.8,0.65c-0.04,0.02-0.09,0.01-0.11-0.02
			c-0.02-0.03-0.02-0.07,0.02-0.09l0,0c0.58-0.33,1.79-0.66,1.84-0.67c0.04-0.01,0.09,0.01,0.1,0.04
			C8.61,97.23,8.6,97.26,8.57,97.28z"/>
	</g>
	<path class="st32" d="M-13.13,99.07c0,0-0.27-0.01-1.39-0.05c-0.13-0.63-0.15-1.65-0.15-1.65l-2.3,0.22c0,0,0.08,1.03,0.21,1.66
		c-0.62,0.22-1.48,0.42-1.48,0.42s0.67,1.19,3.39,0.86C-12.13,100.2-13.13,99.07-13.13,99.07z"/>
	<path class="st33" d="M-16.76,99.25c-0.08-0.55-0.21-1.66-0.21-1.66l2.3-0.22c0,0,0.08,1.08,0.15,1.65
		C-14.71,99.3-15.77,99.54-16.76,99.25z"/>
	<g>
		<path class="st2" d="M-12.38,99.22c1.69,0.09,5.84,0.25,7.61,0.96c0.75,1.33,0.56,3.83-0.25,4.52c-2.26-0.14-5.26-1.15-5.26-1.15
			L-12.38,99.22z"/>
		<path class="st13" d="M-5.53,101.26c-0.62,3.51-2.06,1.22-3.55-0.72c0.85,3.18,2.06,3.62,2.06,3.62s0.85,0.25,1.33,0.16
			C-5.29,103.4-5.22,102.48-5.53,101.26z"/>
		<path class="st13" d="M-8.62,99.59c-0.98-0.07-1.11,0.45-0.17,0.49c0.94,0.04,2.21,0.02,3.31,0.38
			C-6.58,99.93-8.15,99.62-8.62,99.59z"/>
		<path class="st13" d="M-5.42,99.98c0.32,0.65,0.64,2.82-0.06,4.67c0.17,0.17,0.81,0.2,0.98,0.11c0.56-1.4,0.67-3.59,0.21-4.54
			C-4.71,99.96-5.42,99.98-5.42,99.98z"/>
	</g>
	<g>
		<path class="st2" d="M-14.21,100.34c0.72,0.03,1.76-0.83,1.2-1.23c2.76,0.23,3.61,0.83,5.03,2.85c1.33,1.9,2.74,4.76,4.82,12.8
			c-1.56,2.82-16.67,3.69-18.57,2.59c-0.4-1.9,1.44-9.11,0.51-15.88c0.35-0.81,1.05-1.29,2.71-1.73
			C-16.91,100.55-15.76,100.6-14.21,100.34z"/>
		<path class="st13" d="M-20.11,104.66c0.37,1.77,3.56,9.44,8.21,10.61c4.65,1.17,7.93-0.67,7.28-4.05
			c0.58,1.78,1.12,3.31,0.81,3.62c-0.86,0.99-8.29,3.28-17.27,2.23c-0.17-2.84,0.56-10.79,0.72-12.33
			C-20.2,103.2-20.11,104.66-20.11,104.66z"/>
		<path class="st13" d="M-13.8,99.03c0.36,0.15,0.91,0.67-0.7,0.97c-1.37,0.25-2.87-0.01-3.04-0.47c-0.68-0.13-1.64,0.21-1.64,0.42
			c1.07,0.93,2.93,1.21,5.34,0.77c2.19-0.39,1.94-1.18,1.43-1.56C-13,98.84-13.8,99.03-13.8,99.03z"/>
		<path class="st13" d="M-8.97,102.17c-1.92-1.94-4.08-0.86-2.19,0.96c1.89,1.82,4.16,3.13,5.54,5.93
			C-6.5,105.89-8.05,103.11-8.97,102.17z"/>
	</g>
	<g>
		<path class="st2" d="M-20.16,100.4c-2.18,0.75-4.99,2.33-6.58,4.14c0.34,0.85,2.77,3.04,3.79,3.11c1.15-0.44,3.38-2.31,3.38-2.31
			S-18.28,102.12-20.16,100.4z"/>
		<path class="st13" d="M-19.76,105.2c0,0-3.36,1.79-6.2-0.93c1.04,1.3,2.89,2.58,3.45,2.59C-21.63,106.59-19.76,105.2-19.76,105.2z
			"/>
		<path class="st13" d="M-21.41,101.23c1.14-0.37,1.54,0.2,0.43,0.54c-1.1,0.33-2.64,0.69-3.8,1.45
			C-23.71,102.25-21.96,101.41-21.41,101.23z"/>
		<path class="st13" d="M-26.43,104.16c0.19,0.56,1.77,2.18,3.87,3.31c-0.24,0.26-0.53,0.44-0.64,0.46
			c-0.68,0.02-3.69-2.22-3.83-3.1C-26.88,104.46-26.43,104.16-26.43,104.16z"/>
	</g>
	<g>
		<g>
			<path class="st13" d="M-39.08,95.3c3.18,3.21,2.52,7.95-1.48,10.59c-3.99,2.64-9.81,2.18-12.99-1.04
				c-3.18-3.21-2.52-7.95,1.47-10.59C-48.07,91.62-42.26,92.09-39.08,95.3z"/>
			<path class="st2" d="M-40.56,105.89c2.14-1.41,3.29-3.42,3.44-5.48l-10.72,7.09C-45.34,107.8-42.69,107.3-40.56,105.89z"/>
			<path class="st11" d="M-43.09,104.3c0.17,0.36,0.72,1.53,0.91,1.91l5.32,5.37c0.52,0.54,1.48,0.62,2.13,0.19
				c0.65-0.43,0.75-1.21,0.22-1.74l-5.31-5.37c-0.33-0.1-1.47-0.83-2.1-1.12L-43.09,104.3z"/>
		</g>
	</g>
	<g>
		<g>
			<g>
				<g>
					<g>
						<path class="st32" d="M-36.31,108.17c0,0,0.2-1.26-1.11-1.19c-0.62,0.03-1.03,0.74-0.84,0.95c0.46,0.5,1.42-0.2,1.42-0.2
							L-36.31,108.17z"/>
					</g>
				</g>
			</g>
		</g>
		<g>
			<g>
				<g>
					<path class="st32" d="M-40.17,109.29c0.15-0.68,1.12-1.18,1.73-0.85c0.29,0.16,0.39,0.52,0.13,0.76
						c1.07-0.31,1.48,0.55,1.09,0.96c0.68-0.11,0.95,0.62,0.71,0.89c-0.33,0.37-0.84,0.64-1.59,0.48
						C-38.9,111.35-40.39,110.33-40.17,109.29z"/>
				</g>
			</g>
		</g>
		<path class="st33" d="M-37.52,110.28c0.39-0.41-0.02-1.27-1.09-0.96c0.25-0.23,0.16-0.6-0.14-0.76c-0.24-0.13-0.52-0.12-0.8-0.04
			c-0.1,0.05-0.18,0.12-0.26,0.19c0.14,0.01,0.28,0.03,0.4,0.09c0.29,0.16,0.39,0.52,0.14,0.76c1.07-0.31,1.48,0.55,1.09,0.96
			c0.68-0.11,0.95,0.62,0.71,0.89c-0.05,0.06-0.12,0.1-0.18,0.15c0.14,0,0.27-0.02,0.39-0.05c0.17-0.09,0.32-0.21,0.44-0.35
			C-36.57,110.9-36.84,110.17-37.52,110.28z"/>
		<path class="st33" d="M-39.65,110.17c-0.02,0.01-0.05,0.01-0.08-0.01c-0.04-0.02-0.06-0.07-0.04-0.11
			c0.5-0.71,1.14-0.92,1.49-0.98c0.05-0.01,0.1,0.02,0.11,0.06c0.01,0.04-0.02,0.08-0.07,0.09c-0.31,0.06-0.91,0.25-1.37,0.9
			C-39.61,110.15-39.63,110.17-39.65,110.17z"/>
		<path class="st33" d="M-38.6,111.17c-0.02,0.01-0.05,0.01-0.07-0.01c-0.05-0.02-0.06-0.07-0.04-0.11c0.29-0.45,0.82-0.8,1.54-1h0
			c0.05-0.02,0.1,0.01,0.12,0.05c0.02,0.04-0.01,0.08-0.06,0.1c-0.68,0.19-1.16,0.51-1.44,0.93
			C-38.55,111.15-38.57,111.17-38.6,111.17z"/>
	</g>
	<path class="st32" d="M0.56,73.69c2.64,4.42,5.34,18.3-9.89,23.25c-15.15,4.93-25.18-2.99-29.02-11.63
		c-4.63-10.42,4.59-18.24,13.63-20.3C-10.61,61.78-2.98,67.78,0.56,73.69z"/>
	<path class="st33" d="M1.89,76.92c-0.38-1.32-0.86-2.43-1.33-3.23c-3.54-5.91-11.17-11.91-25.28-8.68
		c-9.04,2.07-18.26,9.88-13.63,20.3c0.54,1.22,1.21,2.42,1.99,3.57c-0.02-0.85-0.36-1.49-0.36-1.49s1.96,2.42,6.67,1.39
		c-3.61-0.64-6.52-3.76-6.44-8.64c1.65,5.26,4.97,5.47,4.97,5.47s-5.65-5.75,0.31-10.18c-3.45,4.43,1.26,6.41,1.26,6.41
		s-3.98-8.64,16.7-10.5c-0.37,3.48-5.08,4.94-5.08,4.94s4.4,0.43,10.26-5.2c1.1,1.41,3.66,4.17,7.12,4.43
		c-3.24-2.31-3.04-4.23-3.04-4.23S-0.09,72.73,1.89,76.92z"/>
	<path class="st33" d="M-13.62,83.7c0.04,0.15,0.29,0.23,0.58,0.19c0.28-0.05,0.48-0.2,0.44-0.35c-0.04-0.15-0.29-0.23-0.57-0.19
		C-13.46,83.4-13.66,83.56-13.62,83.7z"/>
	<path class="st10" d="M-6.52,73.84c-2.3-0.44-2.66,1.62-1.15,1.56c1.62-0.06,3,0.38,3.19,0.24C-4.05,75.34-5.22,74.08-6.52,73.84z"
		/>
	<path class="st10" d="M-27.3,77.35c1.85-1.2,3.25,0.53,1.87,1.01c-1.49,0.52-2.51,1.39-2.76,1.33
		C-28.74,79.58-28.34,78.03-27.3,77.35z"/>
	<path class="st33" d="M-38.61,84.96c-1.19-2.93-0.67-5.61,0.88-7.96c-0.73,1.93-0.81,4.57,0.13,6.87
		c3.49,8.56,14.42,16.02,28.18,11.25c6.83-2.37,9-5.9,10.67-8.72c-1.17,3.73-4.11,7.33-10.69,9.89
		C-22.45,101.32-35.12,93.52-38.61,84.96z"/>
	<g>
		<path class="st21" d="M-8.45,86.45c0,0,1.71,6.81-4.17,7.94c-5.88,1.13-5.94-5.74-5.94-5.74S-14.09,89.19-8.45,86.45z"/>
		<path class="st22" d="M-13.84,88.29c0.05,1.71-0.32,4.18-2.56,5.44c-2.13-1.6-2.16-5.08-2.16-5.08S-16.69,88.87-13.84,88.29z"/>
		<path class="st23" d="M-9.33,92.47c-0.66,0.89-1.7,1.61-3.29,1.92c-2.91,0.56-4.39-0.84-5.15-2.4c0.19-0.33,1.1-0.73,2.08-0.43
			C-14.8,90.17-10.98,90.94-9.33,92.47z"/>
		<path class="st24" d="M-16.76,91.78c0.44-0.18,1.02-0.12,1.28-0.01c0.17-0.29,0.46-0.63,1.35-0.7c2.2-0.2,5.06,1.53,2.32,2.58
			C-14.59,94.71-18.38,92.44-16.76,91.78z"/>
		<path class="st25" d="M-12.19,91.66c-0.5-0.36-1.68-0.54-1.99-0.28c-0.36,0.31,0.68,0.73,1.35,0.77
			C-12.15,92.19-11.87,91.89-12.19,91.66z"/>
		<path class="st26" d="M-10.14,87.19c0.3,0.7,0.21,1.27-0.93,1.72c-1.06,0.43-2.64,0.79-3.76,0.86c-1.34,0.09-2.04-0.35-2.04-1.1
			C-14.6,88.5-12.8,88.19-10.14,87.19z"/>
	</g>
	<path class="st33" d="M-12.84,85.49c0.03,0,0.06,0,0.08-0.01c0.73-0.34,1.07-0.91,0.9-1.52c-0.16-0.56-0.73-1.01-1.32-1.04
		c-0.37-0.02-1.06,0.11-1.52,1.15c-0.02,0.05,0.01,0.1,0.07,0.11c0.06,0.02,0.12-0.01,0.14-0.05c0.31-0.69,0.77-1.05,1.3-1.03
		c0.5,0.02,0.98,0.41,1.12,0.9c0.07,0.25,0.14,0.89-0.79,1.32c-0.05,0.02-0.07,0.08-0.04,0.12C-12.89,85.47-12.87,85.48-12.84,85.49
		z"/>
	<g>
		<path class="st33" d="M-21.38,79.99c1.76,1.26,2.01,3.39,0.55,4.75c-1.46,1.36-4.07,1.44-5.83,0.18
			c-1.76-1.26-2.01-3.39-0.55-4.75C-25.76,78.8-23.14,78.72-21.38,79.99z"/>
		<path class="st33" d="M-25.8,84.63c-1.27,0.32-1.45,0.85-0.41,1.19c1.05,0.34,2.93,0.35,4.2,0.03c1.27-0.32,1.46-0.85,0.41-1.19
			C-22.65,84.33-24.52,84.31-25.8,84.63z"/>
		<path class="st26" d="M-21.27,79.86c1.72,1.23,1.96,3.3,0.54,4.63c-1.42,1.32-3.97,1.4-5.69,0.17c-1.72-1.23-1.96-3.3-0.54-4.63
			C-25.54,78.71-22.99,78.63-21.27,79.86z"/>
		<path class="st27" d="M-27.26,81.59c-0.05,0.88,0.39,1.78,1.29,2.43c1.52,1.09,3.78,1.02,5.04-0.15c0.35-0.33,0.59-0.71,0.71-1.12
			c-0.03,0.6-0.3,1.19-0.81,1.67c-1.26,1.17-3.51,1.24-5.04,0.15C-27.17,83.79-27.58,82.62-27.26,81.59z"/>
		<path class="st32" d="M-20.49,82.38c0.27,0.99-0.43,1.96-1.57,2.17c-1.14,0.21-2.29-0.42-2.56-1.4c-0.27-0.99,0.43-1.96,1.57-2.17
			C-21.91,80.76-20.76,81.39-20.49,82.38z"/>
		<path d="M-20.8,82.57c0.17,0.61-0.26,1.21-0.97,1.34c-0.71,0.13-1.41-0.26-1.59-0.87c-0.17-0.61,0.27-1.21,0.97-1.34
			C-21.68,81.57-20.97,81.96-20.8,82.57z"/>
		<path class="st26" d="M-20.91,81.92c0.07,0.25-0.11,0.5-0.4,0.55c-0.29,0.05-0.58-0.1-0.65-0.35c-0.07-0.25,0.11-0.5,0.4-0.55
			C-21.28,81.51-20.99,81.67-20.91,81.92z"/>
		<path class="st26" d="M-22.29,83.71c0.04,0.15-0.06,0.3-0.24,0.33c-0.18,0.03-0.35-0.06-0.39-0.22c-0.04-0.15,0.07-0.3,0.24-0.33
			C-22.51,83.46-22.33,83.56-22.29,83.71z"/>
	</g>
	<g>
		<path class="st33" d="M-10.15,79.04c-0.33,1.66,0.96,3.21,2.88,3.46c1.92,0.25,3.74-0.89,4.07-2.54c0.33-1.66-0.96-3.21-2.88-3.46
			C-8,76.24-9.82,77.38-10.15,79.04z"/>
		<path class="st33" d="M-8.34,81.72C-9.45,82-9.61,82.46-8.7,82.76c0.91,0.29,2.56,0.31,3.66,0.03c1.11-0.28,1.27-0.74,0.36-1.04
			C-5.59,81.46-7.23,81.44-8.34,81.72z"/>
		<path class="st26" d="M-9.77,79.04c-0.32,1.64,0.95,3.17,2.84,3.42c1.89,0.25,3.69-0.88,4.02-2.51c0.33-1.64-0.95-3.17-2.84-3.42
			C-7.64,76.28-9.44,77.4-9.77,79.04z"/>
		<path class="st27" d="M-9.32,79.27c0.06-0.32,0.2-0.62,0.39-0.89c-0.07,0.16-0.13,0.33-0.16,0.51c-0.28,1.44,0.84,2.79,2.5,3.01
			c0.99,0.13,1.94-0.17,2.62-0.74c-0.65,0.77-1.75,1.21-2.9,1.06C-8.51,82-9.6,80.68-9.32,79.27z"/>
		<path class="st32" d="M-7.16,80.19c0.24,0.88,1.26,1.44,2.28,1.25c1.02-0.19,1.64-1.05,1.39-1.93c-0.24-0.88-1.26-1.44-2.28-1.25
			C-6.77,78.45-7.4,79.31-7.16,80.19z"/>
		<path d="M-5.88,80.11c0.15,0.52,0.76,0.86,1.36,0.75c0.61-0.11,0.98-0.63,0.83-1.16c-0.15-0.53-0.76-0.86-1.36-0.75
			C-5.65,79.07-6.02,79.59-5.88,80.11z"/>
		<path class="st26" d="M-4.78,79.32c0.06,0.22,0.32,0.36,0.58,0.32c0.26-0.05,0.41-0.27,0.35-0.49c-0.06-0.22-0.32-0.36-0.57-0.32
			C-4.69,78.88-4.85,79.1-4.78,79.32z"/>
		<path class="st26" d="M-5.7,80.71c0.04,0.14,0.19,0.22,0.35,0.19c0.15-0.03,0.25-0.16,0.21-0.3c-0.04-0.13-0.19-0.22-0.35-0.19
			C-5.64,80.44-5.74,80.57-5.7,80.71z"/>
	</g>
	<g>
		<path class="st32" d="M-34.55,87.15c0,0-1.67-1.79-4.33-0.91c-2.8,0.93-1.74,4.36,1.04,5.64c2.77,1.28,5.91,0.25,5.72-1.68
			L-34.55,87.15z"/>
		<path class="st33" d="M-38.47,86.31c0.68-0.22,1.28-0.26,1.81-0.2c-0.41-0.04-0.85,0-1.3,0.17c-2.58,0.96-1.36,3.48,0.39,4.57
			c2.37,1.47,4.89,0.7,5.44-0.86c0.17,1.8-2.77,2.76-5.37,1.57C-40.11,90.37-41.1,87.18-38.47,86.31z"/>
		<path class="st33" d="M-38.78,87.32c1.5-1.06,4.87,1.15,3.6,3.68c-0.44-2.45-1.81-2.73-2.36-1.22c-0.45-0.66-0.31-1.27,0.76-1.66
			C-37.46,87.29-38.78,87.32-38.78,87.32z"/>
	</g>
	<path class="st10" d="M-39.13,86.58c0.48,0.34,2.25,2.83,2.12,3.27c0.94-1.54,0.08-3.14,0.08-3.14s3.06,1.73,7.77,0.71
		c-3.61-0.64-7.62-3.08-7.54-7.95c1.65,5.26,5.34,5.32,5.34,5.32s-6.02-5.6-0.05-10.02c-3.45,4.43-0.42,6.5-0.42,6.5
		s-0.55-9.62,18.37-10.58c-0.47,2.18-7.07,3.78-7.07,3.78s6.28,0.83,12.25-4.04c1.1,1.41,4.87,3.91,8.32,4.17
		c-1.88-1.67-4.24-3.98-4.24-3.98s4.24,1.54,6.12,6.16c-0.99-5.6-3.82-9.7-3.82-9.7s2.88,0.64,4.29-0.26
		c-5.97-1.54-6.28-7.93-12.4-8.12c0.31-0.71,3.61-1.28,3.61-1.28s-3.38-1.67-5.97,0.64c-1.26-2.44-4.08-3.08-4.08-3.08
		s1.57,1.28,0.71,2.57c-9.03-1.92-19.7,1.03-22.85,8.47c-5.97-0.77-9.58,5.77-6.44,10.9c2.98,4.87,5.1,10.39,2.9,12.44
		C-39.76,88.44-39.13,86.58-39.13,86.58z"/>
	<path d="M-36.86,67.02c2.62-6.97,9.11-8.64,16.01-7.48c-10.36,0.77-12.56,5.3-14.55,7.61c7.12-3.51,10.68-1.71,10.68-1.71
		s-5.76-0.34-10.78,3.51c-1.7,1.3-4.5,3.16-4.82,9.49c-3.45-7.01,3.25-10.18,3.25-10.18s-5.76,0.81-7.48,4.79
		C-43.61,67.15-36.86,67.02-36.86,67.02z"/>
	<path class="st2" d="M-43.97,78.78C-42.3,74.08-24.3,61.6-1.9,67.07c2.41,1.28,2.93,5.99,2.93,5.99s-26.27-5.81-42.5,11.63
		C-44.18,82.63-43.97,78.78-43.97,78.78z"/>
	<path class="st13" d="M-43.29,78.78c0,0,2.36-3.59,5.5-5.3c-2.72,3.16-5.34,6.5-3.66,7.18c1.67,0.68,3.35-3.98,11.72-5.13
		c-4.08,1.88-8.48,4.4-11.78,8.34C-43.35,81.13-43.29,78.78-43.29,78.78z"/>
	<g>
		<rect x="67.89" y="93.92" class="st40" width="1.69" height="9.15"/>
		<g>
			<g>
				<g>
					<rect x="18.85" y="103.36" class="st41" width="2.38" height="27.14"/>
				</g>
				<g>
					<rect x="20.04" y="111.22" class="st42" width="32.43" height="1.95"/>
				</g>
				<g>
					<rect x="51.28" y="103.36" class="st41" width="2.39" height="27.14"/>
				</g>
			</g>
		</g>
		<g>
			<g>
				<g>
					<rect x="83.7" y="103.36" class="st41" width="2.38" height="27.14"/>
				</g>
				<g>
					<rect x="84.89" y="111.22" class="st42" width="32.43" height="1.95"/>
				</g>
				<g>
					<rect x="116.13" y="103.36" class="st41" width="2.38" height="27.14"/>
				</g>
			</g>
		</g>
		<g>
			<rect x="9.68" y="118.28" class="st43" width="2.39" height="24.31"/>
			<rect x="10.87" y="123.32" class="st43" width="32.43" height="1.95"/>
			<rect x="42.11" y="118.28" class="st43" width="2.39" height="24.31"/>
			<rect x="9.68" y="116.82" class="st44" width="2.39" height="3.11"/>
			<rect x="42.11" y="116.82" class="st44" width="2.39" height="3.11"/>
		</g>
		<g>
			<rect x="92.65" y="118.28" class="st43" width="2.38" height="24.31"/>
			<rect x="93.84" y="123.32" class="st43" width="32.43" height="1.95"/>
			<rect x="125.08" y="118.28" class="st43" width="2.39" height="24.31"/>
			<rect x="92.65" y="116.82" class="st44" width="2.38" height="3.29"/>
			<rect x="125.08" y="116.82" class="st44" width="2.39" height="3.29"/>
		</g>
		<rect x="-1.65" y="116.82" class="st45" width="139.26" height="1.95"/>
		<polygon class="st2" points="-1.65,116.82 12.66,100.26 122.84,100.26 137.61,116.82 		"/>
		<path class="st26" d="M134.81,116.06H1.14l13.1-15.17h107.05l0.08,0.09L134.81,116.06z M2.15,115.63h131.61l-12.75-14.31H14.51
			L2.15,115.63z"/>
		<polygon class="st26" points="6.26,107.66 129.44,107.66 129,107.16 129,107.16 6.69,107.16 		"/>
		<rect x="68.36" y="94.62" class="st26" width="0.76" height="22.57"/>
		<rect x="67.77" y="111.22" class="st40" width="1.94" height="10.48"/>
	</g>
	<path class="st2" d="M29.33,88.75c0,0.86-0.85,1.55-1.89,1.55c-1.05,0-1.9-0.69-1.9-1.55c0-0.85,0.85-1.55,1.9-1.55
		C28.48,87.2,29.33,87.9,29.33,88.75z"/>
	<line class="st46" x1="224.31" y1="144.41" x2="208.13" y2="144.41"/>
	<line class="st46" x1="-68.05" y1="144.41" x2="-84.23" y2="144.41"/>
	<polygon class="st3" points="38.26,6.52 41.02,11.09 47.19,11.83 42.73,15.38 43.78,20.4 38.26,18.03 32.74,20.4 33.8,15.38 
		29.33,11.83 35.5,11.09 	"/>
	<polygon class="st3" points="21.14,9.01 22.91,11.94 26.87,12.41 24,14.69 24.68,17.91 21.14,16.39 17.6,17.91 18.28,14.69 
		15.41,12.41 19.37,11.94 	"/>
	<polygon class="st3" points="117.33,9.01 119.1,11.94 123.05,12.41 120.19,14.69 120.87,17.91 117.33,16.39 113.79,17.91 
		114.46,14.69 111.6,12.41 115.56,11.94 	"/>
	<polygon class="st3" points="98.71,6.52 101.47,11.09 107.64,11.83 103.18,15.38 104.23,20.4 98.71,18.03 93.19,20.4 94.24,15.38 
		89.78,11.83 95.95,11.09 	"/>
	<polygon class="st3" points="67.77,0.59 72.89,9.06 84.34,10.42 76.05,17.02 78.01,26.34 67.77,21.94 57.52,26.34 59.48,17.02 
		51.19,10.42 62.64,9.06 	"/>
</g>
</svg>
